REM DIRINDEX 1\2,1\3
REM DIRNAME cjc132,folder01,folder02
TITLE ""
FILE "32.mp3" MP3
  TRACK 01 AUDIO
    TITLE "0:"
    INDEX 01 00:00:00
  TRACK 02 AUDIO
    TITLE "3:cjc132_0593"
    INDEX 01 00:00:11
  TRACK 03 AUDIO
    TITLE "0:"
    INDEX 01 00:01:21
  TRACK 04 AUDIO
    TITLE "2:cjc132_0594"
    INDEX 01 00:01:69
  TRACK 05 AUDIO
    TITLE "0:"
    INDEX 01 00:03:63
  TRACK 06 AUDIO
    TITLE "2:cjc132_0595"
    INDEX 01 00:04:36
  TRACK 07 AUDIO
    TITLE "0:"
    INDEX 01 00:06:02
  TRACK 08 AUDIO
    TITLE "2:cjc132_0596"
    INDEX 01 00:06:51
  TRACK 09 AUDIO
    TITLE "0:"
    INDEX 01 00:07:62
  TRACK 10 AUDIO
    TITLE "2:cjc132_0597"
    INDEX 01 00:08:34
  TRACK 11 AUDIO
    TITLE "0:"
    INDEX 01 00:09:71
  TRACK 12 AUDIO
    TITLE "2:cjc132_0598"
    INDEX 01 00:10:45
  TRACK 13 AUDIO
    TITLE "0:"
    INDEX 01 00:11:74
  TRACK 14 AUDIO
    TITLE "2:cjc132_0599"
    INDEX 01 00:13:12
  TRACK 15 AUDIO
    TITLE "0:"
    INDEX 01 00:14:51
  TRACK 16 AUDIO
    TITLE "2:cjc132_0600"
    INDEX 01 00:16:36
  TRACK 17 AUDIO
    TITLE "0:"
    INDEX 01 00:18:44
  TRACK 18 AUDIO
    TITLE "2:cjc132_0601"
    INDEX 01 00:21:00
  TRACK 19 AUDIO
    TITLE "0:"
    INDEX 01 00:22:56
  TRACK 20 AUDIO
    TITLE "2:cjc132_0602"
    INDEX 01 00:24:59
  TRACK 21 AUDIO
    TITLE "0:"
    INDEX 01 00:26:50
  TRACK 22 AUDIO
    TITLE "2:cjc132_0603"
    INDEX 01 00:28:64
  TRACK 23 AUDIO
    TITLE "0:"
    INDEX 01 00:31:12
  TRACK 24 AUDIO
    TITLE "2:cjc132_0604"
    INDEX 01 00:33:56
  TRACK 25 AUDIO
    TITLE "0:"
    INDEX 01 00:35:08
  TRACK 26 AUDIO
    TITLE "2:cjc132_0605"
    INDEX 01 00:36:62
  TRACK 27 AUDIO
    TITLE "0:"
    INDEX 01 00:38:35
  TRACK 28 AUDIO
    TITLE "2:cjc132_0606"
    INDEX 01 00:40:32
  TRACK 29 AUDIO
    TITLE "0:"
    INDEX 01 00:42:08
  TRACK 30 AUDIO
    TITLE "2:cjc132_0607"
    INDEX 01 00:44:05
  TRACK 31 AUDIO
    TITLE "0:"
    INDEX 01 00:46:45
  TRACK 32 AUDIO
    TITLE "2:cjc132_0608"
    INDEX 01 00:49:31
  TRACK 33 AUDIO
    TITLE "0:"
    INDEX 01 00:50:48
  TRACK 34 AUDIO
    TITLE "2:cjc132_0609"
    INDEX 01 00:52:12
  TRACK 35 AUDIO
    TITLE "0:"
    INDEX 01 00:53:68
  TRACK 36 AUDIO
    TITLE "2:cjc132_0610"
    INDEX 01 00:55:71
  TRACK 37 AUDIO
    TITLE "0:"
    INDEX 01 00:57:27
  TRACK 38 AUDIO
    TITLE "2:cjc132_0611"
    INDEX 01 00:59:04
  TRACK 39 AUDIO
    TITLE "0:"
    INDEX 01 01:00:53
  TRACK 40 AUDIO
    TITLE "2:cjc132_0612"
    INDEX 01 01:02:52
  TRACK 41 AUDIO
    TITLE "0:"
    INDEX 01 01:04:35
  TRACK 42 AUDIO
    TITLE "2:cjc132_0613"
    INDEX 01 01:06:36
  TRACK 43 AUDIO
    TITLE "0:"
    INDEX 01 01:08:09
  TRACK 44 AUDIO
    TITLE "2:cjc132_0614"
    INDEX 01 01:10:02
  TRACK 45 AUDIO
    TITLE "0:"
    INDEX 01 01:11:51
  TRACK 46 AUDIO
    TITLE "2:cjc132_0615"
    INDEX 01 01:13:44
  TRACK 47 AUDIO
    TITLE "0:"
    INDEX 01 01:15:35
  TRACK 48 AUDIO
    TITLE "2:cjc132_0616"
    INDEX 01 01:17:43
  TRACK 49 AUDIO
    TITLE "0:"
    INDEX 01 01:19:48
  TRACK 50 AUDIO
    TITLE "2:cjc132_0617"
    INDEX 01 01:21:69
  TRACK 51 AUDIO
    TITLE "0:"
    INDEX 01 01:23:32
  TRACK 52 AUDIO
    TITLE "2:cjc132_0618"
    INDEX 01 01:25:13
  TRACK 53 AUDIO
    TITLE "0:"
    INDEX 01 01:26:54
  TRACK 54 AUDIO
    TITLE "2:cjc132_0619"
    INDEX 01 01:28:35
  TRACK 55 AUDIO
    TITLE "0:"
    INDEX 01 01:29:62
  TRACK 56 AUDIO
    TITLE "2:cjc132_0620"
    INDEX 01 01:31:30
  TRACK 57 AUDIO
    TITLE "0:"
    INDEX 01 01:33:23
  TRACK 58 AUDIO
    TITLE "2:cjc132_0621"
    INDEX 01 01:35:37
  TRACK 59 AUDIO
    TITLE "0:"
    INDEX 01 01:37:05
  TRACK 60 AUDIO
    TITLE "2:cjc132_0622"
    INDEX 01 01:39:00
  TRACK 61 AUDIO
    TITLE "0:"
    INDEX 01 01:40:50
  TRACK 62 AUDIO
    TITLE "2:cjc132_0623"
    INDEX 01 01:42:49
  TRACK 63 AUDIO
    TITLE "0:"
    INDEX 01 01:44:23
  TRACK 64 AUDIO
    TITLE "2:cjc132_0624"
    INDEX 01 01:46:18
  TRACK 65 AUDIO
    TITLE "0:"
    INDEX 01 01:48:14
